P3
64 64
255
0 255 63
4 255 63
8 255 63
12 255 63
16 255 63
20 255 63
24 255 63
28 255 63
32 255 63
36 255 63
40 255 63
44 255 63
48 255 63
52 255 63
56 255 63
60 255 63
65 255 63
69 255 63
73 255 63
77 255 63
81 255 63
85 255 63
89 255 63
93 255 63
97 255 63
101 255 63
105 255 63
109 255 63
113 255 63
117 255 63
121 255 63
125 255 63
130 255 63
134 255 63
138 255 63
142 255 63
146 255 63
150 255 63
154 255 63
158 255 63
162 255 63
166 255 63
170 255 63
174 255 63
178 255 63
182 255 63
186 255 63
190 255 63
195 255 63
199 255 63
203 255 63
207 255 63
211 255 63
215 255 63
219 255 63
223 255 63
227 255 63
231 255 63
235 255 63
239 255 63
243 255 63
247 255 63
251 255 63
255 255 63
0 251 63
4 251 63
8 251 63
12 251 63
16 251 63
20 251 63
24 251 63
28 251 63
32 251 63
36 251 63
40 251 63
44 251 63
48 251 63
52 251 63
56 251 63
60 251 63
65 251 63
69 251 63
73 251 63
77 251 63
81 251 63
85 251 63
89 251 63
93 251 63
97 251 63
101 251 63
105 251 63
109 251 63
113 251 63
117 251 63
121 251 63
125 251 63
130 251 63
134 251 63
138 251 63
142 251 63
146 251 63
150 251 63
154 251 63
158 251 63
162 251 63
166 251 63
170 251 63
174 251 63
178 251 63
182 251 63
186 251 63
190 251 63
195 251 63
199 251 63
203 251 63
207 251 63
211 251 63
215 251 63
219 251 63
223 251 63
227 251 63
231 251 63
235 251 63
239 251 63
243 251 63
247 251 63
251 251 63
255 251 63
0 247 63
4 247 63
8 247 63
12 247 63
16 247 63
20 247 63
24 247 63
28 247 63
32 247 63
36 247 63
40 247 63
44 247 63
48 247 63
52 247 63
56 247 63
60 247 63
65 247 63
69 247 63
73 247 63
77 247 63
81 247 63
85 247 63
89 247 63
93 247 63
97 247 63
101 247 63
105 247 63
109 247 63
113 247 63
117 247 63
121 247 63
125 247 63
130 247 63
134 247 63
138 247 63
142 247 63
146 247 63
150 247 63
154 247 63
158 247 63
162 247 63
166 247 63
170 247 63
174 247 63
178 247 63
182 247 63
186 247 63
190 247 63
195 247 63
199 247 63
203 247 63
207 247 63
211 247 63
215 247 63
219 247 63
223 247 63
227 247 63
231 247 63
235 247 63
239 247 63
243 247 63
247 247 63
251 247 63
255 247 63
0 243 63
4 243 63
8 243 63
12 243 63
16 243 63
20 243 63
24 243 63
28 243 63
32 243 63
36 243 63
40 243 63
44 243 63
48 243 63
52 243 63
56 243 63
60 243 63
65 243 63
69 243 63
73 243 63
77 243 63
81 243 63
85 243 63
89 243 63
93 243 63
97 243 63
101 243 63
105 243 63
109 243 63
113 243 63
117 243 63
121 243 63
125 243 63
130 243 63
134 243 63
138 243 63
142 243 63
146 243 63
150 243 63
154 243 63
158 243 63
162 243 63
166 243 63
170 243 63
174 243 63
178 243 63
182 243 63
186 243 63
190 243 63
195 243 63
199 243 63
203 243 63
207 243 63
211 243 63
215 243 63
219 243 63
223 243 63
227 243 63
231 243 63
235 243 63
239 243 63
243 243 63
247 243 63
251 243 63
255 243 63
0 239 63
4 239 63
8 239 63
12 239 63
16 239 63
20 239 63
24 239 63
28 239 63
32 239 63
36 239 63
40 239 63
44 239 63
48 239 63
52 239 63
56 239 63
60 239 63
65 239 63
69 239 63
73 239 63
77 239 63
81 239 63
85 239 63
89 239 63
93 239 63
97 239 63
101 239 63
105 239 63
109 239 63
113 239 63
117 239 63
121 239 63
125 239 63
130 239 63
134 239 63
138 239 63
142 239 63
146 239 63
150 239 63
154 239 63
158 239 63
162 239 63
166 239 63
170 239 63
174 239 63
178 239 63
182 239 63
186 239 63
190 239 63
195 239 63
199 239 63
203 239 63
207 239 63
211 239 63
215 239 63
219 239 63
223 239 63
227 239 63
231 239 63
235 239 63
239 239 63
243 239 63
247 239 63
251 239 63
255 239 63
0 235 63
4 235 63
8 235 63
12 235 63
16 235 63
20 235 63
24 235 63
28 235 63
32 235 63
36 235 63
40 235 63
44 235 63
48 235 63
52 235 63
56 235 63
60 235 63
65 235 63
69 235 63
73 235 63
77 235 63
81 235 63
85 235 63
89 235 63
93 235 63
97 235 63
101 235 63
105 235 63
109 235 63
113 235 63
117 235 63
121 235 63
125 235 63
130 235 63
134 235 63
138 235 63
142 235 63
146 235 63
150 235 63
154 235 63
158 235 63
162 235 63
166 235 63
170 235 63
174 235 63
178 235 63
182 235 63
186 235 63
190 235 63
195 235 63
199 235 63
203 235 63
207 235 63
211 235 63
215 235 63
219 235 63
223 235 63
227 235 63
231 235 63
235 235 63
239 235 63
243 235 63
247 235 63
251 235 63
255 235 63
0 231 63
4 231 63
8 231 63
12 231 63
16 231 63
20 231 63
24 231 63
28 231 63
32 231 63
36 231 63
40 231 63
44 231 63
48 231 63
52 231 63
56 231 63
60 231 63
65 231 63
69 231 63
73 231 63
77 231 63
81 231 63
85 231 63
89 231 63
93 231 63
97 231 63
101 231 63
105 231 63
109 231 63
113 231 63
117 231 63
121 231 63
125 231 63
130 231 63
134 231 63
138 231 63
142 231 63
146 231 63
150 231 63
154 231 63
158 231 63
162 231 63
166 231 63
170 231 63
174 231 63
178 231 63
182 231 63
186 231 63
190 231 63
195 231 63
199 231 63
203 231 63
207 231 63
211 231 63
215 231 63
219 231 63
223 231 63
227 231 63
231 231 63
235 231 63
239 231 63
243 231 63
247 231 63
251 231 63
255 231 63
0 227 63
4 227 63
8 227 63
12 227 63
16 227 63
20 227 63
24 227 63
28 227 63
32 227 63
36 227 63
40 227 63
44 227 63
48 227 63
52 227 63
56 227 63
60 227 63
65 227 63
69 227 63
73 227 63
77 227 63
81 227 63
85 227 63
89 227 63
93 227 63
97 227 63
101 227 63
105 227 63
109 227 63
113 227 63
117 227 63
121 227 63
125 227 63
130 227 63
134 227 63
138 227 63
142 227 63
146 227 63
150 227 63
154 227 63
158 227 63
162 227 63
166 227 63
170 227 63
174 227 63
178 227 63
182 227 63
186 227 63
190 227 63
195 227 63
199 227 63
203 227 63
207 227 63
211 227 63
215 227 63
219 227 63
223 227 63
227 227 63
231 227 63
235 227 63
239 227 63
243 227 63
247 227 63
251 227 63
255 227 63
0 223 63
4 223 63
8 223 63
12 223 63
16 223 63
20 223 63
24 223 63
28 223 63
32 223 63
36 223 63
40 223 63
44 223 63
48 223 63
52 223 63
56 223 63
60 223 63
65 223 63
69 223 63
73 223 63
77 223 63
81 223 63
85 223 63
89 223 63
93 223 63
97 223 63
101 223 63
105 223 63
109 223 63
113 223 63
117 223 63
121 223 63
125 223 63
130 223 63
134 223 63
138 223 63
142 223 63
146 223 63
150 223 63
154 223 63
158 223 63
162 223 63
166 223 63
170 223 63
174 223 63
178 223 63
182 223 63
186 223 63
190 223 63
195 223 63
199 223 63
203 223 63
207 223 63
211 223 63
215 223 63
219 223 63
223 223 63
227 223 63
231 223 63
235 223 63
239 223 63
243 223 63
247 223 63
251 223 63
255 223 63
0 219 63
4 219 63
8 219 63
12 219 63
16 219 63
20 219 63
24 219 63
28 219 63
32 219 63
36 219 63
40 219 63
44 219 63
48 219 63
52 219 63
56 219 63
60 219 63
65 219 63
69 219 63
73 219 63
77 219 63
81 219 63
85 219 63
89 219 63
93 219 63
97 219 63
101 219 63
105 219 63
109 219 63
113 219 63
117 219 63
121 219 63
125 219 63
130 219 63
134 219 63
138 219 63
142 219 63
146 219 63
150 219 63
154 219 63
158 219 63
162 219 63
166 219 63
170 219 63
174 219 63
178 219 63
182 219 63
186 219 63
190 219 63
195 219 63
199 219 63
203 219 63
207 219 63
211 219 63
215 219 63
219 219 63
223 219 63
227 219 63
231 219 63
235 219 63
239 219 63
243 219 63
247 219 63
251 219 63
255 219 63
0 215 63
4 215 63
8 215 63
12 215 63
16 215 63
20 215 63
24 215 63
28 215 63
32 215 63
36 215 63
40 215 63
44 215 63
48 215 63
52 215 63
56 215 63
60 215 63
65 215 63
69 215 63
73 215 63
77 215 63
81 215 63
85 215 63
89 215 63
93 215 63
97 215 63
101 215 63
105 215 63
109 215 63
113 215 63
117 215 63
121 215 63
125 215 63
130 215 63
134 215 63
138 215 63
142 215 63
146 215 63
150 215 63
154 215 63
158 215 63
162 215 63
166 215 63
170 215 63
174 215 63
178 215 63
182 215 63
186 215 63
190 215 63
195 215 63
199 215 63
203 215 63
207 215 63
211 215 63
215 215 63
219 215 63
223 215 63
227 215 63
231 215 63
235 215 63
239 215 63
243 215 63
247 215 63
251 215 63
255 215 63
0 211 63
4 211 63
8 211 63
12 211 63
16 211 63
20 211 63
24 211 63
28 211 63
32 211 63
36 211 63
40 211 63
44 211 63
48 211 63
52 211 63
56 211 63
60 211 63
65 211 63
69 211 63
73 211 63
77 211 63
81 211 63
85 211 63
89 211 63
93 211 63
97 211 63
101 211 63
105 211 63
109 211 63
113 211 63
117 211 63
121 211 63
125 211 63
130 211 63
134 211 63
138 211 63
142 211 63
146 211 63
150 211 63
154 211 63
158 211 63
162 211 63
166 211 63
170 211 63
174 211 63
178 211 63
182 211 63
186 211 63
190 211 63
195 211 63
199 211 63
203 211 63
207 211 63
211 211 63
215 211 63
219 211 63
223 211 63
227 211 63
231 211 63
235 211 63
239 211 63
243 211 63
247 211 63
251 211 63
255 211 63
0 207 63
4 207 63
8 207 63
12 207 63
16 207 63
20 207 63
24 207 63
28 207 63
32 207 63
36 207 63
40 207 63
44 207 63
48 207 63
52 207 63
56 207 63
60 207 63
65 207 63
69 207 63
73 207 63
77 207 63
81 207 63
85 207 63
89 207 63
93 207 63
97 207 63
101 207 63
105 207 63
109 207 63
113 207 63
117 207 63
121 207 63
125 207 63
130 207 63
134 207 63
138 207 63
142 207 63
146 207 63
150 207 63
154 207 63
158 207 63
162 207 63
166 207 63
170 207 63
174 207 63
178 207 63
182 207 63
186 207 63
190 207 63
195 207 63
199 207 63
203 207 63
207 207 63
211 207 63
215 207 63
219 207 63
223 207 63
227 207 63
231 207 63
235 207 63
239 207 63
243 207 63
247 207 63
251 207 63
255 207 63
0 203 63
4 203 63
8 203 63
12 203 63
16 203 63
20 203 63
24 203 63
28 203 63
32 203 63
36 203 63
40 203 63
44 203 63
48 203 63
52 203 63
56 203 63
60 203 63
65 203 63
69 203 63
73 203 63
77 203 63
81 203 63
85 203 63
89 203 63
93 203 63
97 203 63
101 203 63
105 203 63
109 203 63
113 203 63
117 203 63
121 203 63
125 203 63
130 203 63
134 203 63
138 203 63
142 203 63
146 203 63
150 203 63
154 203 63
158 203 63
162 203 63
166 203 63
170 203 63
174 203 63
178 203 63
182 203 63
186 203 63
190 203 63
195 203 63
199 203 63
203 203 63
207 203 63
211 203 63
215 203 63
219 203 63
223 203 63
227 203 63
231 203 63
235 203 63
239 203 63
243 203 63
247 203 63
251 203 63
255 203 63
0 199 63
4 199 63
8 199 63
12 199 63
16 199 63
20 199 63
24 199 63
28 199 63
32 199 63
36 199 63
40 199 63
44 199 63
48 199 63
52 199 63
56 199 63
60 199 63
65 199 63
69 199 63
73 199 63
77 199 63
81 199 63
85 199 63
89 199 63
93 199 63
97 199 63
101 199 63
105 199 63
109 199 63
113 199 63
117 199 63
121 199 63
125 199 63
130 199 63
134 199 63
138 199 63
142 199 63
146 199 63
150 199 63
154 199 63
158 199 63
162 199 63
166 199 63
170 199 63
174 199 63
178 199 63
182 199 63
186 199 63
190 199 63
195 199 63
199 199 63
203 199 63
207 199 63
211 199 63
215 199 63
219 199 63
223 199 63
227 199 63
231 199 63
235 199 63
239 199 63
243 199 63
247 199 63
251 199 63
255 199 63
0 195 63
4 195 63
8 195 63
12 195 63
16 195 63
20 195 63
24 195 63
28 195 63
32 195 63
36 195 63
40 195 63
44 195 63
48 195 63
52 195 63
56 195 63
60 195 63
65 195 63
69 195 63
73 195 63
77 195 63
81 195 63
85 195 63
89 195 63
93 195 63
97 195 63
101 195 63
105 195 63
109 195 63
113 195 63
117 195 63
121 195 63
125 195 63
130 195 63
134 195 63
138 195 63
142 195 63
146 195 63
150 195 63
154 195 63
158 195 63
162 195 63
166 195 63
170 195 63
174 195 63
178 195 63
182 195 63
186 195 63
190 195 63
195 195 63
199 195 63
203 195 63
207 195 63
211 195 63
215 195 63
219 195 63
223 195 63
227 195 63
231 195 63
235 195 63
239 195 63
243 195 63
247 195 63
251 195 63
255 195 63
0 190 63
4 190 63
8 190 63
12 190 63
16 190 63
20 190 63
24 190 63
28 190 63
32 190 63
36 190 63
40 190 63
44 190 63
48 190 63
52 190 63
56 190 63
60 190 63
65 190 63
69 190 63
73 190 63
77 190 63
81 190 63
85 190 63
89 190 63
93 190 63
97 190 63
101 190 63
105 190 63
109 190 63
113 190 63
117 190 63
121 190 63
125 190 63
130 190 63
134 190 63
138 190 63
142 190 63
146 190 63
150 190 63
154 190 63
158 190 63
162 190 63
166 190 63
170 190 63
174 190 63
178 190 63
182 190 63
186 190 63
190 190 63
195 190 63
199 190 63
203 190 63
207 190 63
211 190 63
215 190 63
219 190 63
223 190 63
227 190 63
231 190 63
235 190 63
239 190 63
243 190 63
247 190 63
251 190 63
255 190 63
0 186 63
4 186 63
8 186 63
12 186 63
16 186 63
20 186 63
24 186 63
28 186 63
32 186 63
36 186 63
40 186 63
44 186 63
48 186 63
52 186 63
56 186 63
60 186 63
65 186 63
69 186 63
73 186 63
77 186 63
81 186 63
85 186 63
89 186 63
93 186 63
97 186 63
101 186 63
105 186 63
109 186 63
113 186 63
117 186 63
121 186 63
125 186 63
130 186 63
134 186 63
138 186 63
142 186 63
146 186 63
150 186 63
154 186 63
158 186 63
162 186 63
166 186 63
170 186 63
174 186 63
178 186 63
182 186 63
186 186 63
190 186 63
195 186 63
199 186 63
203 186 63
207 186 63
211 186 63
215 186 63
219 186 63
223 186 63
227 186 63
231 186 63
235 186 63
239 186 63
243 186 63
247 186 63
251 186 63
255 186 63
0 182 63
4 182 63
8 182 63
12 182 63
16 182 63
20 182 63
24 182 63
28 182 63
32 182 63
36 182 63
40 182 63
44 182 63
48 182 63
52 182 63
56 182 63
60 182 63
65 182 63
69 182 63
73 182 63
77 182 63
81 182 63
85 182 63
89 182 63
93 182 63
97 182 63
101 182 63
105 182 63
109 182 63
113 182 63
117 182 63
121 182 63
125 182 63
130 182 63
134 182 63
138 182 63
142 182 63
146 182 63
150 182 63
154 182 63
158 182 63
162 182 63
166 182 63
170 182 63
174 182 63
178 182 63
182 182 63
186 182 63
190 182 63
195 182 63
199 182 63
203 182 63
207 182 63
211 182 63
215 182 63
219 182 63
223 182 63
227 182 63
231 182 63
235 182 63
239 182 63
243 182 63
247 182 63
251 182 63
255 182 63
0 178 63
4 178 63
8 178 63
12 178 63
16 178 63
20 178 63
24 178 63
28 178 63
32 178 63
36 178 63
40 178 63
44 178 63
48 178 63
52 178 63
56 178 63
60 178 63
65 178 63
69 178 63
73 178 63
77 178 63
81 178 63
85 178 63
89 178 63
93 178 63
97 178 63
101 178 63
105 178 63
109 178 63
113 178 63
117 178 63
121 178 63
125 178 63
130 178 63
134 178 63
138 178 63
142 178 63
146 178 63
150 178 63
154 178 63
158 178 63
162 178 63
166 178 63
170 178 63
174 178 63
178 178 63
182 178 63
186 178 63
190 178 63
195 178 63
199 178 63
203 178 63
207 178 63
211 178 63
215 178 63
219 178 63
223 178 63
227 178 63
231 178 63
235 178 63
239 178 63
243 178 63
247 178 63
251 178 63
255 178 63
0 174 63
4 174 63
8 174 63
12 174 63
16 174 63
20 174 63
24 174 63
28 174 63
32 174 63
36 174 63
40 174 63
44 174 63
48 174 63
52 174 63
56 174 63
60 174 63
65 174 63
69 174 63
73 174 63
77 174 63
81 174 63
85 174 63
89 174 63
93 174 63
97 174 63
101 174 63
105 174 63
109 174 63
113 174 63
117 174 63
121 174 63
125 174 63
130 174 63
134 174 63
138 174 63
142 174 63
146 174 63
150 174 63
154 174 63
158 174 63
162 174 63
166 174 63
170 174 63
174 174 63
178 174 63
182 174 63
186 174 63
190 174 63
195 174 63
199 174 63
203 174 63
207 174 63
211 174 63
215 174 63
219 174 63
223 174 63
227 174 63
231 174 63
235 174 63
239 174 63
243 174 63
247 174 63
251 174 63
255 174 63
0 170 63
4 170 63
8 170 63
12 170 63
16 170 63
20 170 63
24 170 63
28 170 63
32 170 63
36 170 63
40 170 63
44 170 63
48 170 63
52 170 63
56 170 63
60 170 63
65 170 63
69 170 63
73 170 63
77 170 63
81 170 63
85 170 63
89 170 63
93 170 63
97 170 63
101 170 63
105 170 63
109 170 63
113 170 63
117 170 63
121 170 63
125 170 63
130 170 63
134 170 63
138 170 63
142 170 63
146 170 63
150 170 63
154 170 63
158 170 63
162 170 63
166 170 63
170 170 63
174 170 63
178 170 63
182 170 63
186 170 63
190 170 63
195 170 63
199 170 63
203 170 63
207 170 63
211 170 63
215 170 63
219 170 63
223 170 63
227 170 63
231 170 63
235 170 63
239 170 63
243 170 63
247 170 63
251 170 63
255 170 63
0 166 63
4 166 63
8 166 63
12 166 63
16 166 63
20 166 63
24 166 63
28 166 63
32 166 63
36 166 63
40 166 63
44 166 63
48 166 63
52 166 63
56 166 63
60 166 63
65 166 63
69 166 63
73 166 63
77 166 63
81 166 63
85 166 63
89 166 63
93 166 63
97 166 63
101 166 63
105 166 63
109 166 63
113 166 63
117 166 63
121 166 63
125 166 63
130 166 63
134 166 63
138 166 63
142 166 63
146 166 63
150 166 63
154 166 63
158 166 63
162 166 63
166 166 63
170 166 63
174 166 63
178 166 63
182 166 63
186 166 63
190 166 63
195 166 63
199 166 63
203 166 63
207 166 63
211 166 63
215 166 63
219 166 63
223 166 63
227 166 63
231 166 63
235 166 63
239 166 63
243 166 63
247 166 63
251 166 63
255 166 63
0 162 63
4 162 63
8 162 63
12 162 63
16 162 63
20 162 63
24 162 63
28 162 63
32 162 63
36 162 63
40 162 63
44 162 63
48 162 63
52 162 63
56 162 63
60 162 63
65 162 63
69 162 63
73 162 63
77 162 63
81 162 63
85 162 63
89 162 63
93 162 63
97 162 63
101 162 63
105 162 63
109 162 63
113 162 63
117 162 63
121 162 63
125 162 63
130 162 63
134 162 63
138 162 63
142 162 63
146 162 63
150 162 63
154 162 63
158 162 63
162 162 63
166 162 63
170 162 63
174 162 63
178 162 63
182 162 63
186 162 63
190 162 63
195 162 63
199 162 63
203 162 63
207 162 63
211 162 63
215 162 63
219 162 63
223 162 63
227 162 63
231 162 63
235 162 63
239 162 63
243 162 63
247 162 63
251 162 63
255 162 63
0 158 63
4 158 63
8 158 63
12 158 63
16 158 63
20 158 63
24 158 63
28 158 63
32 158 63
36 158 63
40 158 63
44 158 63
48 158 63
52 158 63
56 158 63
60 158 63
65 158 63
69 158 63
73 158 63
77 158 63
81 158 63
85 158 63
89 158 63
93 158 63
97 158 63
101 158 63
105 158 63
109 158 63
113 158 63
117 158 63
121 158 63
125 158 63
130 158 63
134 158 63
138 158 63
142 158 63
146 158 63
150 158 63
154 158 63
158 158 63
162 158 63
166 158 63
170 158 63
174 158 63
178 158 63
182 158 63
186 158 63
190 158 63
195 158 63
199 158 63
203 158 63
207 158 63
211 158 63
215 158 63
219 158 63
223 158 63
227 158 63
231 158 63
235 158 63
239 158 63
243 158 63
247 158 63
251 158 63
255 158 63
0 154 63
4 154 63
8 154 63
12 154 63
16 154 63
20 154 63
24 154 63
28 154 63
32 154 63
36 154 63
40 154 63
44 154 63
48 154 63
52 154 63
56 154 63
60 154 63
65 154 63
69 154 63
73 154 63
77 154 63
81 154 63
85 154 63
89 154 63
93 154 63
97 154 63
101 154 63
105 154 63
109 154 63
113 154 63
117 154 63
121 154 63
125 154 63
130 154 63
134 154 63
138 154 63
142 154 63
146 154 63
150 154 63
154 154 63
158 154 63
162 154 63
166 154 63
170 154 63
174 154 63
178 154 63
182 154 63
186 154 63
190 154 63
195 154 63
199 154 63
203 154 63
207 154 63
211 154 63
215 154 63
219 154 63
223 154 63
227 154 63
231 154 63
235 154 63
239 154 63
243 154 63
247 154 63
251 154 63
255 154 63
0 150 63
4 150 63
8 150 63
12 150 63
16 150 63
20 150 63
24 150 63
28 150 63
32 150 63
36 150 63
40 150 63
44 150 63
48 150 63
52 150 63
56 150 63
60 150 63
65 150 63
69 150 63
73 150 63
77 150 63
81 150 63
85 150 63
89 150 63
93 150 63
97 150 63
101 150 63
105 150 63
109 150 63
113 150 63
117 150 63
121 150 63
125 150 63
130 150 63
134 150 63
138 150 63
142 150 63
146 150 63
150 150 63
154 150 63
158 150 63
162 150 63
166 150 63
170 150 63
174 150 63
178 150 63
182 150 63
186 150 63
190 150 63
195 150 63
199 150 63
203 150 63
207 150 63
211 150 63
215 150 63
219 150 63
223 150 63
227 150 63
231 150 63
235 150 63
239 150 63
243 150 63
247 150 63
251 150 63
255 150 63
0 146 63
4 146 63
8 146 63
12 146 63
16 146 63
20 146 63
24 146 63
28 146 63
32 146 63
36 146 63
40 146 63
44 146 63
48 146 63
52 146 63
56 146 63
60 146 63
65 146 63
69 146 63
73 146 63
77 146 63
81 146 63
85 146 63
89 146 63
93 146 63
97 146 63
101 146 63
105 146 63
109 146 63
113 146 63
117 146 63
121 146 63
125 146 63
130 146 63
134 146 63
138 146 63
142 146 63
146 146 63
150 146 63
154 146 63
158 146 63
162 146 63
166 146 63
170 146 63
174 146 63
178 146 63
182 146 63
186 146 63
190 146 63
195 146 63
199 146 63
203 146 63
207 146 63
211 146 63
215 146 63
219 146 63
223 146 63
227 146 63
231 146 63
235 146 63
239 146 63
243 146 63
247 146 63
251 146 63
255 146 63
0 142 63
4 142 63
8 142 63
12 142 63
16 142 63
20 142 63
24 142 63
28 142 63
32 142 63
36 142 63
40 142 63
44 142 63
48 142 63
52 142 63
56 142 63
60 142 63
65 142 63
69 142 63
73 142 63
77 142 63
81 142 63
85 142 63
89 142 63
93 142 63
97 142 63
101 142 63
105 142 63
109 142 63
113 142 63
117 142 63
121 142 63
125 142 63
130 142 63
134 142 63
138 142 63
142 142 63
146 142 63
150 142 63
154 142 63
158 142 63
162 142 63
166 142 63
170 142 63
174 142 63
178 142 63
182 142 63
186 142 63
190 142 63
195 142 63
199 142 63
203 142 63
207 142 63
211 142 63
215 142 63
219 142 63
223 142 63
227 142 63
231 142 63
235 142 63
239 142 63
243 142 63
247 142 63
251 142 63
255 142 63
0 138 63
4 138 63
8 138 63
12 138 63
16 138 63
20 138 63
24 138 63
28 138 63
32 138 63
36 138 63
40 138 63
44 138 63
48 138 63
52 138 63
56 138 63
60 138 63
65 138 63
69 138 63
73 138 63
77 138 63
81 138 63
85 138 63
89 138 63
93 138 63
97 138 63
101 138 63
105 138 63
109 138 63
113 138 63
117 138 63
121 138 63
125 138 63
130 138 63
134 138 63
138 138 63
142 138 63
146 138 63
150 138 63
154 138 63
158 138 63
162 138 63
166 138 63
170 138 63
174 138 63
178 138 63
182 138 63
186 138 63
190 138 63
195 138 63
199 138 63
203 138 63
207 138 63
211 138 63
215 138 63
219 138 63
223 138 63
227 138 63
231 138 63
235 138 63
239 138 63
243 138 63
247 138 63
251 138 63
255 138 63
0 134 63
4 134 63
8 134 63
12 134 63
16 134 63
20 134 63
24 134 63
28 134 63
32 134 63
36 134 63
40 134 63
44 134 63
48 134 63
52 134 63
56 134 63
60 134 63
65 134 63
69 134 63
73 134 63
77 134 63
81 134 63
85 134 63
89 134 63
93 134 63
97 134 63
101 134 63
105 134 63
109 134 63
113 134 63
117 134 63
121 134 63
125 134 63
130 134 63
134 134 63
138 134 63
142 134 63
146 134 63
150 134 63
154 134 63
158 134 63
162 134 63
166 134 63
170 134 63
174 134 63
178 134 63
182 134 63
186 134 63
190 134 63
195 134 63
199 134 63
203 134 63
207 134 63
211 134 63
215 134 63
219 134 63
223 134 63
227 134 63
231 134 63
235 134 63
239 134 63
243 134 63
247 134 63
251 134 63
255 134 63
0 130 63
4 130 63
8 130 63
12 130 63
16 130 63
20 130 63
24 130 63
28 130 63
32 130 63
36 130 63
40 130 63
44 130 63
48 130 63
52 130 63
56 130 63
60 130 63
65 130 63
69 130 63
73 130 63
77 130 63
81 130 63
85 130 63
89 130 63
93 130 63
97 130 63
101 130 63
105 130 63
109 130 63
113 130 63
117 130 63
121 130 63
125 130 63
130 130 63
134 130 63
138 130 63
142 130 63
146 130 63
150 130 63
154 130 63
158 130 63
162 130 63
166 130 63
170 130 63
174 130 63
178 130 63
182 130 63
186 130 63
190 130 63
195 130 63
199 130 63
203 130 63
207 130 63
211 130 63
215 130 63
219 130 63
223 130 63
227 130 63
231 130 63
235 130 63
239 130 63
243 130 63
247 130 63
251 130 63
255 130 63
0 125 63
4 125 63
8 125 63
12 125 63
16 125 63
20 125 63
24 125 63
28 125 63
32 125 63
36 125 63
40 125 63
44 125 63
48 125 63
52 125 63
56 125 63
60 125 63
65 125 63
69 125 63
73 125 63
77 125 63
81 125 63
85 125 63
89 125 63
93 125 63
97 125 63
101 125 63
105 125 63
109 125 63
113 125 63
117 125 63
121 125 63
125 125 63
130 125 63
134 125 63
138 125 63
142 125 63
146 125 63
150 125 63
154 125 63
158 125 63
162 125 63
166 125 63
170 125 63
174 125 63
178 125 63
182 125 63
186 125 63
190 125 63
195 125 63
199 125 63
203 125 63
207 125 63
211 125 63
215 125 63
219 125 63
223 125 63
227 125 63
231 125 63
235 125 63
239 125 63
243 125 63
247 125 63
251 125 63
255 125 63
0 121 63
4 121 63
8 121 63
12 121 63
16 121 63
20 121 63
24 121 63
28 121 63
32 121 63
36 121 63
40 121 63
44 121 63
48 121 63
52 121 63
56 121 63
60 121 63
65 121 63
69 121 63
73 121 63
77 121 63
81 121 63
85 121 63
89 121 63
93 121 63
97 121 63
101 121 63
105 121 63
109 121 63
113 121 63
117 121 63
121 121 63
125 121 63
130 121 63
134 121 63
138 121 63
142 121 63
146 121 63
150 121 63
154 121 63
158 121 63
162 121 63
166 121 63
170 121 63
174 121 63
178 121 63
182 121 63
186 121 63
190 121 63
195 121 63
199 121 63
203 121 63
207 121 63
211 121 63
215 121 63
219 121 63
223 121 63
227 121 63
231 121 63
235 121 63
239 121 63
243 121 63
247 121 63
251 121 63
255 121 63
0 117 63
4 117 63
8 117 63
12 117 63
16 117 63
20 117 63
24 117 63
28 117 63
32 117 63
36 117 63
40 117 63
44 117 63
48 117 63
52 117 63
56 117 63
60 117 63
65 117 63
69 117 63
73 117 63
77 117 63
81 117 63
85 117 63
89 117 63
93 117 63
97 117 63
101 117 63
105 117 63
109 117 63
113 117 63
117 117 63
121 117 63
125 117 63
130 117 63
134 117 63
138 117 63
142 117 63
146 117 63
150 117 63
154 117 63
158 117 63
162 117 63
166 117 63
170 117 63
174 117 63
178 117 63
182 117 63
186 117 63
190 117 63
195 117 63
199 117 63
203 117 63
207 117 63
211 117 63
215 117 63
219 117 63
223 117 63
227 117 63
231 117 63
235 117 63
239 117 63
243 117 63
247 117 63
251 117 63
255 117 63
0 113 63
4 113 63
8 113 63
12 113 63
16 113 63
20 113 63
24 113 63
28 113 63
32 113 63
36 113 63
40 113 63
44 113 63
48 113 63
52 113 63
56 113 63
60 113 63
65 113 63
69 113 63
73 113 63
77 113 63
81 113 63
85 113 63
89 113 63
93 113 63
97 113 63
101 113 63
105 113 63
109 113 63
113 113 63
117 113 63
121 113 63
125 113 63
130 113 63
134 113 63
138 113 63
142 113 63
146 113 63
150 113 63
154 113 63
158 113 63
162 113 63
166 113 63
170 113 63
174 113 63
178 113 63
182 113 63
186 113 63
190 113 63
195 113 63
199 113 63
203 113 63
207 113 63
211 113 63
215 113 63
219 113 63
223 113 63
227 113 63
231 113 63
235 113 63
239 113 63
243 113 63
247 113 63
251 113 63
255 113 63
0 109 63
4 109 63
8 109 63
12 109 63
16 109 63
20 109 63
24 109 63
28 109 63
32 109 63
36 109 63
40 109 63
44 109 63
48 109 63
52 109 63
56 109 63
60 109 63
65 109 63
69 109 63
73 109 63
77 109 63
81 109 63
85 109 63
89 109 63
93 109 63
97 109 63
101 109 63
105 109 63
109 109 63
113 109 63
117 109 63
121 109 63
125 109 63
130 109 63
134 109 63
138 109 63
142 109 63
146 109 63
150 109 63
154 109 63
158 109 63
162 109 63
166 109 63
170 109 63
174 109 63
178 109 63
182 109 63
186 109 63
190 109 63
195 109 63
199 109 63
203 109 63
207 109 63
211 109 63
215 109 63
219 109 63
223 109 63
227 109 63
231 109 63
235 109 63
239 109 63
243 109 63
247 109 63
251 109 63
255 109 63
0 105 63
4 105 63
8 105 63
12 105 63
16 105 63
20 105 63
24 105 63
28 105 63
32 105 63
36 105 63
40 105 63
44 105 63
48 105 63
52 105 63
56 105 63
60 105 63
65 105 63
69 105 63
73 105 63
77 105 63
81 105 63
85 105 63
89 105 63
93 105 63
97 105 63
101 105 63
105 105 63
109 105 63
113 105 63
117 105 63
121 105 63
125 105 63
130 105 63
134 105 63
138 105 63
142 105 63
146 105 63
150 105 63
154 105 63
158 105 63
162 105 63
166 105 63
170 105 63
174 105 63
178 105 63
182 105 63
186 105 63
190 105 63
195 105 63
199 105 63
203 105 63
207 105 63
211 105 63
215 105 63
219 105 63
223 105 63
227 105 63
231 105 63
235 105 63
239 105 63
243 105 63
247 105 63
251 105 63
255 105 63
0 101 63
4 101 63
8 101 63
12 101 63
16 101 63
20 101 63
24 101 63
28 101 63
32 101 63
36 101 63
40 101 63
44 101 63
48 101 63
52 101 63
56 101 63
60 101 63
65 101 63
69 101 63
73 101 63
77 101 63
81 101 63
85 101 63
89 101 63
93 101 63
97 101 63
101 101 63
105 101 63
109 101 63
113 101 63
117 101 63
121 101 63
125 101 63
130 101 63
134 101 63
138 101 63
142 101 63
146 101 63
150 101 63
154 101 63
158 101 63
162 101 63
166 101 63
170 101 63
174 101 63
178 101 63
182 101 63
186 101 63
190 101 63
195 101 63
199 101 63
203 101 63
207 101 63
211 101 63
215 101 63
219 101 63
223 101 63
227 101 63
231 101 63
235 101 63
239 101 63
243 101 63
247 101 63
251 101 63
255 101 63
0 97 63
4 97 63
8 97 63
12 97 63
16 97 63
20 97 63
24 97 63
28 97 63
32 97 63
36 97 63
40 97 63
44 97 63
48 97 63
52 97 63
56 97 63
60 97 63
65 97 63
69 97 63
73 97 63
77 97 63
81 97 63
85 97 63
89 97 63
93 97 63
97 97 63
101 97 63
105 97 63
109 97 63
113 97 63
117 97 63
121 97 63
125 97 63
130 97 63
134 97 63
138 97 63
142 97 63
146 97 63
150 97 63
154 97 63
158 97 63
162 97 63
166 97 63
170 97 63
174 97 63
178 97 63
182 97 63
186 97 63
190 97 63
195 97 63
199 97 63
203 97 63
207 97 63
211 97 63
215 97 63
219 97 63
223 97 63
227 97 63
231 97 63
235 97 63
239 97 63
243 97 63
247 97 63
251 97 63
255 97 63
0 93 63
4 93 63
8 93 63
12 93 63
16 93 63
20 93 63
24 93 63
28 93 63
32 93 63
36 93 63
40 93 63
44 93 63
48 93 63
52 93 63
56 93 63
60 93 63
65 93 63
69 93 63
73 93 63
77 93 63
81 93 63
85 93 63
89 93 63
93 93 63
97 93 63
101 93 63
105 93 63
109 93 63
113 93 63
117 93 63
121 93 63
125 93 63
130 93 63
134 93 63
138 93 63
142 93 63
146 93 63
150 93 63
154 93 63
158 93 63
162 93 63
166 93 63
170 93 63
174 93 63
178 93 63
182 93 63
186 93 63
190 93 63
195 93 63
199 93 63
203 93 63
207 93 63
211 93 63
215 93 63
219 93 63
223 93 63
227 93 63
231 93 63
235 93 63
239 93 63
243 93 63
247 93 63
251 93 63
255 93 63
0 89 63
4 89 63
8 89 63
12 89 63
16 89 63
20 89 63
24 89 63
28 89 63
32 89 63
36 89 63
40 89 63
44 89 63
48 89 63
52 89 63
56 89 63
60 89 63
65 89 63
69 89 63
73 89 63
77 89 63
81 89 63
85 89 63
89 89 63
93 89 63
97 89 63
101 89 63
105 89 63
109 89 63
113 89 63
117 89 63
121 89 63
125 89 63
130 89 63
134 89 63
138 89 63
142 89 63
146 89 63
150 89 63
154 89 63
158 89 63
162 89 63
166 89 63
170 89 63
174 89 63
178 89 63
182 89 63
186 89 63
190 89 63
195 89 63
199 89 63
203 89 63
207 89 63
211 89 63
215 89 63
219 89 63
223 89 63
227 89 63
231 89 63
235 89 63
239 89 63
243 89 63
247 89 63
251 89 63
255 89 63
0 85 63
4 85 63
8 85 63
12 85 63
16 85 63
20 85 63
24 85 63
28 85 63
32 85 63
36 85 63
40 85 63
44 85 63
48 85 63
52 85 63
56 85 63
60 85 63
65 85 63
69 85 63
73 85 63
77 85 63
81 85 63
85 85 63
89 85 63
93 85 63
97 85 63
101 85 63
105 85 63
109 85 63
113 85 63
117 85 63
121 85 63
125 85 63
130 85 63
134 85 63
138 85 63
142 85 63
146 85 63
150 85 63
154 85 63
158 85 63
162 85 63
166 85 63
170 85 63
174 85 63
178 85 63
182 85 63
186 85 63
190 85 63
195 85 63
199 85 63
203 85 63
207 85 63
211 85 63
215 85 63
219 85 63
223 85 63
227 85 63
231 85 63
235 85 63
239 85 63
243 85 63
247 85 63
251 85 63
255 85 63
0 81 63
4 81 63
8 81 63
12 81 63
16 81 63
20 81 63
24 81 63
28 81 63
32 81 63
36 81 63
40 81 63
44 81 63
48 81 63
52 81 63
56 81 63
60 81 63
65 81 63
69 81 63
73 81 63
77 81 63
81 81 63
85 81 63
89 81 63
93 81 63
97 81 63
101 81 63
105 81 63
109 81 63
113 81 63
117 81 63
121 81 63
125 81 63
130 81 63
134 81 63
138 81 63
142 81 63
146 81 63
150 81 63
154 81 63
158 81 63
162 81 63
166 81 63
170 81 63
174 81 63
178 81 63
182 81 63
186 81 63
190 81 63
195 81 63
199 81 63
203 81 63
207 81 63
211 81 63
215 81 63
219 81 63
223 81 63
227 81 63
231 81 63
235 81 63
239 81 63
243 81 63
247 81 63
251 81 63
255 81 63
0 77 63
4 77 63
8 77 63
12 77 63
16 77 63
20 77 63
24 77 63
28 77 63
32 77 63
36 77 63
40 77 63
44 77 63
48 77 63
52 77 63
56 77 63
60 77 63
65 77 63
69 77 63
73 77 63
77 77 63
81 77 63
85 77 63
89 77 63
93 77 63
97 77 63
101 77 63
105 77 63
109 77 63
113 77 63
117 77 63
121 77 63
125 77 63
130 77 63
134 77 63
138 77 63
142 77 63
146 77 63
150 77 63
154 77 63
158 77 63
162 77 63
166 77 63
170 77 63
174 77 63
178 77 63
182 77 63
186 77 63
190 77 63
195 77 63
199 77 63
203 77 63
207 77 63
211 77 63
215 77 63
219 77 63
223 77 63
227 77 63
231 77 63
235 77 63
239 77 63
243 77 63
247 77 63
251 77 63
255 77 63
0 73 63
4 73 63
8 73 63
12 73 63
16 73 63
20 73 63
24 73 63
28 73 63
32 73 63
36 73 63
40 73 63
44 73 63
48 73 63
52 73 63
56 73 63
60 73 63
65 73 63
69 73 63
73 73 63
77 73 63
81 73 63
85 73 63
89 73 63
93 73 63
97 73 63
101 73 63
105 73 63
109 73 63
113 73 63
117 73 63
121 73 63
125 73 63
130 73 63
134 73 63
138 73 63
142 73 63
146 73 63
150 73 63
154 73 63
158 73 63
162 73 63
166 73 63
170 73 63
174 73 63
178 73 63
182 73 63
186 73 63
190 73 63
195 73 63
199 73 63
203 73 63
207 73 63
211 73 63
215 73 63
219 73 63
223 73 63
227 73 63
231 73 63
235 73 63
239 73 63
243 73 63
247 73 63
251 73 63
255 73 63
0 69 63
4 69 63
8 69 63
12 69 63
16 69 63
20 69 63
24 69 63
28 69 63
32 69 63
36 69 63
40 69 63
44 69 63
48 69 63
52 69 63
56 69 63
60 69 63
65 69 63
69 69 63
73 69 63
77 69 63
81 69 63
85 69 63
89 69 63
93 69 63
97 69 63
101 69 63
105 69 63
109 69 63
113 69 63
117 69 63
121 69 63
125 69 63
130 69 63
134 69 63
138 69 63
142 69 63
146 69 63
150 69 63
154 69 63
158 69 63
162 69 63
166 69 63
170 69 63
174 69 63
178 69 63
182 69 63
186 69 63
190 69 63
195 69 63
199 69 63
203 69 63
207 69 63
211 69 63
215 69 63
219 69 63
223 69 63
227 69 63
231 69 63
235 69 63
239 69 63
243 69 63
247 69 63
251 69 63
255 69 63
0 65 63
4 65 63
8 65 63
12 65 63
16 65 63
20 65 63
24 65 63
28 65 63
32 65 63
36 65 63
40 65 63
44 65 63
48 65 63
52 65 63
56 65 63
60 65 63
65 65 63
69 65 63
73 65 63
77 65 63
81 65 63
85 65 63
89 65 63
93 65 63
97 65 63
101 65 63
105 65 63
109 65 63
113 65 63
117 65 63
121 65 63
125 65 63
130 65 63
134 65 63
138 65 63
142 65 63
146 65 63
150 65 63
154 65 63
158 65 63
162 65 63
166 65 63
170 65 63
174 65 63
178 65 63
182 65 63
186 65 63
190 65 63
195 65 63
199 65 63
203 65 63
207 65 63
211 65 63
215 65 63
219 65 63
223 65 63
227 65 63
231 65 63
235 65 63
239 65 63
243 65 63
247 65 63
251 65 63
255 65 63
0 60 63
4 60 63
8 60 63
12 60 63
16 60 63
20 60 63
24 60 63
28 60 63
32 60 63
36 60 63
40 60 63
44 60 63
48 60 63
52 60 63
56 60 63
60 60 63
65 60 63
69 60 63
73 60 63
77 60 63
81 60 63
85 60 63
89 60 63
93 60 63
97 60 63
101 60 63
105 60 63
109 60 63
113 60 63
117 60 63
121 60 63
125 60 63
130 60 63
134 60 63
138 60 63
142 60 63
146 60 63
150 60 63
154 60 63
158 60 63
162 60 63
166 60 63
170 60 63
174 60 63
178 60 63
182 60 63
186 60 63
190 60 63
195 60 63
199 60 63
203 60 63
207 60 63
211 60 63
215 60 63
219 60 63
223 60 63
227 60 63
231 60 63
235 60 63
239 60 63
243 60 63
247 60 63
251 60 63
255 60 63
0 56 63
4 56 63
8 56 63
12 56 63
16 56 63
20 56 63
24 56 63
28 56 63
32 56 63
36 56 63
40 56 63
44 56 63
48 56 63
52 56 63
56 56 63
60 56 63
65 56 63
69 56 63
73 56 63
77 56 63
81 56 63
85 56 63
89 56 63
93 56 63
97 56 63
101 56 63
105 56 63
109 56 63
113 56 63
117 56 63
121 56 63
125 56 63
130 56 63
134 56 63
138 56 63
142 56 63
146 56 63
150 56 63
154 56 63
158 56 63
162 56 63
166 56 63
170 56 63
174 56 63
178 56 63
182 56 63
186 56 63
190 56 63
195 56 63
199 56 63
203 56 63
207 56 63
211 56 63
215 56 63
219 56 63
223 56 63
227 56 63
231 56 63
235 56 63
239 56 63
243 56 63
247 56 63
251 56 63
255 56 63
0 52 63
4 52 63
8 52 63
12 52 63
16 52 63
20 52 63
24 52 63
28 52 63
32 52 63
36 52 63
40 52 63
44 52 63
48 52 63
52 52 63
56 52 63
60 52 63
65 52 63
69 52 63
73 52 63
77 52 63
81 52 63
85 52 63
89 52 63
93 52 63
97 52 63
101 52 63
105 52 63
109 52 63
113 52 63
117 52 63
121 52 63
125 52 63
130 52 63
134 52 63
138 52 63
142 52 63
146 52 63
150 52 63
154 52 63
158 52 63
162 52 63
166 52 63
170 52 63
174 52 63
178 52 63
182 52 63
186 52 63
190 52 63
195 52 63
199 52 63
203 52 63
207 52 63
211 52 63
215 52 63
219 52 63
223 52 63
227 52 63
231 52 63
235 52 63
239 52 63
243 52 63
247 52 63
251 52 63
255 52 63
0 48 63
4 48 63
8 48 63
12 48 63
16 48 63
20 48 63
24 48 63
28 48 63
32 48 63
36 48 63
40 48 63
44 48 63
48 48 63
52 48 63
56 48 63
60 48 63
65 48 63
69 48 63
73 48 63
77 48 63
81 48 63
85 48 63
89 48 63
93 48 63
97 48 63
101 48 63
105 48 63
109 48 63
113 48 63
117 48 63
121 48 63
125 48 63
130 48 63
134 48 63
138 48 63
142 48 63
146 48 63
150 48 63
154 48 63
158 48 63
162 48 63
166 48 63
170 48 63
174 48 63
178 48 63
182 48 63
186 48 63
190 48 63
195 48 63
199 48 63
203 48 63
207 48 63
211 48 63
215 48 63
219 48 63
223 48 63
227 48 63
231 48 63
235 48 63
239 48 63
243 48 63
247 48 63
251 48 63
255 48 63
0 44 63
4 44 63
8 44 63
12 44 63
16 44 63
20 44 63
24 44 63
28 44 63
32 44 63
36 44 63
40 44 63
44 44 63
48 44 63
52 44 63
56 44 63
60 44 63
65 44 63
69 44 63
73 44 63
77 44 63
81 44 63
85 44 63
89 44 63
93 44 63
97 44 63
101 44 63
105 44 63
109 44 63
113 44 63
117 44 63
121 44 63
125 44 63
130 44 63
134 44 63
138 44 63
142 44 63
146 44 63
150 44 63
154 44 63
158 44 63
162 44 63
166 44 63
170 44 63
174 44 63
178 44 63
182 44 63
186 44 63
190 44 63
195 44 63
199 44 63
203 44 63
207 44 63
211 44 63
215 44 63
219 44 63
223 44 63
227 44 63
231 44 63
235 44 63
239 44 63
243 44 63
247 44 63
251 44 63
255 44 63
0 40 63
4 40 63
8 40 63
12 40 63
16 40 63
20 40 63
24 40 63
28 40 63
32 40 63
36 40 63
40 40 63
44 40 63
48 40 63
52 40 63
56 40 63
60 40 63
65 40 63
69 40 63
73 40 63
77 40 63
81 40 63
85 40 63
89 40 63
93 40 63
97 40 63
101 40 63
105 40 63
109 40 63
113 40 63
117 40 63
121 40 63
125 40 63
130 40 63
134 40 63
138 40 63
142 40 63
146 40 63
150 40 63
154 40 63
158 40 63
162 40 63
166 40 63
170 40 63
174 40 63
178 40 63
182 40 63
186 40 63
190 40 63
195 40 63
199 40 63
203 40 63
207 40 63
211 40 63
215 40 63
219 40 63
223 40 63
227 40 63
231 40 63
235 40 63
239 40 63
243 40 63
247 40 63
251 40 63
255 40 63
0 36 63
4 36 63
8 36 63
12 36 63
16 36 63
20 36 63
24 36 63
28 36 63
32 36 63
36 36 63
40 36 63
44 36 63
48 36 63
52 36 63
56 36 63
60 36 63
65 36 63
69 36 63
73 36 63
77 36 63
81 36 63
85 36 63
89 36 63
93 36 63
97 36 63
101 36 63
105 36 63
109 36 63
113 36 63
117 36 63
121 36 63
125 36 63
130 36 63
134 36 63
138 36 63
142 36 63
146 36 63
150 36 63
154 36 63
158 36 63
162 36 63
166 36 63
170 36 63
174 36 63
178 36 63
182 36 63
186 36 63
190 36 63
195 36 63
199 36 63
203 36 63
207 36 63
211 36 63
215 36 63
219 36 63
223 36 63
227 36 63
231 36 63
235 36 63
239 36 63
243 36 63
247 36 63
251 36 63
255 36 63
0 32 63
4 32 63
8 32 63
12 32 63
16 32 63
20 32 63
24 32 63
28 32 63
32 32 63
36 32 63
40 32 63
44 32 63
48 32 63
52 32 63
56 32 63
60 32 63
65 32 63
69 32 63
73 32 63
77 32 63
81 32 63
85 32 63
89 32 63
93 32 63
97 32 63
101 32 63
105 32 63
109 32 63
113 32 63
117 32 63
121 32 63
125 32 63
130 32 63
134 32 63
138 32 63
142 32 63
146 32 63
150 32 63
154 32 63
158 32 63
162 32 63
166 32 63
170 32 63
174 32 63
178 32 63
182 32 63
186 32 63
190 32 63
195 32 63
199 32 63
203 32 63
207 32 63
211 32 63
215 32 63
219 32 63
223 32 63
227 32 63
231 32 63
235 32 63
239 32 63
243 32 63
247 32 63
251 32 63
255 32 63
0 28 63
4 28 63
8 28 63
12 28 63
16 28 63
20 28 63
24 28 63
28 28 63
32 28 63
36 28 63
40 28 63
44 28 63
48 28 63
52 28 63
56 28 63
60 28 63
65 28 63
69 28 63
73 28 63
77 28 63
81 28 63
85 28 63
89 28 63
93 28 63
97 28 63
101 28 63
105 28 63
109 28 63
113 28 63
117 28 63
121 28 63
125 28 63
130 28 63
134 28 63
138 28 63
142 28 63
146 28 63
150 28 63
154 28 63
158 28 63
162 28 63
166 28 63
170 28 63
174 28 63
178 28 63
182 28 63
186 28 63
190 28 63
195 28 63
199 28 63
203 28 63
207 28 63
211 28 63
215 28 63
219 28 63
223 28 63
227 28 63
231 28 63
235 28 63
239 28 63
243 28 63
247 28 63
251 28 63
255 28 63
0 24 63
4 24 63
8 24 63
12 24 63
16 24 63
20 24 63
24 24 63
28 24 63
32 24 63
36 24 63
40 24 63
44 24 63
48 24 63
52 24 63
56 24 63
60 24 63
65 24 63
69 24 63
73 24 63
77 24 63
81 24 63
85 24 63
89 24 63
93 24 63
97 24 63
101 24 63
105 24 63
109 24 63
113 24 63
117 24 63
121 24 63
125 24 63
130 24 63
134 24 63
138 24 63
142 24 63
146 24 63
150 24 63
154 24 63
158 24 63
162 24 63
166 24 63
170 24 63
174 24 63
178 24 63
182 24 63
186 24 63
190 24 63
195 24 63
199 24 63
203 24 63
207 24 63
211 24 63
215 24 63
219 24 63
223 24 63
227 24 63
231 24 63
235 24 63
239 24 63
243 24 63
247 24 63
251 24 63
255 24 63
0 20 63
4 20 63
8 20 63
12 20 63
16 20 63
20 20 63
24 20 63
28 20 63
32 20 63
36 20 63
40 20 63
44 20 63
48 20 63
52 20 63
56 20 63
60 20 63
65 20 63
69 20 63
73 20 63
77 20 63
81 20 63
85 20 63
89 20 63
93 20 63
97 20 63
101 20 63
105 20 63
109 20 63
113 20 63
117 20 63
121 20 63
125 20 63
130 20 63
134 20 63
138 20 63
142 20 63
146 20 63
150 20 63
154 20 63
158 20 63
162 20 63
166 20 63
170 20 63
174 20 63
178 20 63
182 20 63
186 20 63
190 20 63
195 20 63
199 20 63
203 20 63
207 20 63
211 20 63
215 20 63
219 20 63
223 20 63
227 20 63
231 20 63
235 20 63
239 20 63
243 20 63
247 20 63
251 20 63
255 20 63
0 16 63
4 16 63
8 16 63
12 16 63
16 16 63
20 16 63
24 16 63
28 16 63
32 16 63
36 16 63
40 16 63
44 16 63
48 16 63
52 16 63
56 16 63
60 16 63
65 16 63
69 16 63
73 16 63
77 16 63
81 16 63
85 16 63
89 16 63
93 16 63
97 16 63
101 16 63
105 16 63
109 16 63
113 16 63
117 16 63
121 16 63
125 16 63
130 16 63
134 16 63
138 16 63
142 16 63
146 16 63
150 16 63
154 16 63
158 16 63
162 16 63
166 16 63
170 16 63
174 16 63
178 16 63
182 16 63
186 16 63
190 16 63
195 16 63
199 16 63
203 16 63
207 16 63
211 16 63
215 16 63
219 16 63
223 16 63
227 16 63
231 16 63
235 16 63
239 16 63
243 16 63
247 16 63
251 16 63
255 16 63
0 12 63
4 12 63
8 12 63
12 12 63
16 12 63
20 12 63
24 12 63
28 12 63
32 12 63
36 12 63
40 12 63
44 12 63
48 12 63
52 12 63
56 12 63
60 12 63
65 12 63
69 12 63
73 12 63
77 12 63
81 12 63
85 12 63
89 12 63
93 12 63
97 12 63
101 12 63
105 12 63
109 12 63
113 12 63
117 12 63
121 12 63
125 12 63
130 12 63
134 12 63
138 12 63
142 12 63
146 12 63
150 12 63
154 12 63
158 12 63
162 12 63
166 12 63
170 12 63
174 12 63
178 12 63
182 12 63
186 12 63
190 12 63
195 12 63
199 12 63
203 12 63
207 12 63
211 12 63
215 12 63
219 12 63
223 12 63
227 12 63
231 12 63
235 12 63
239 12 63
243 12 63
247 12 63
251 12 63
255 12 63
0 8 63
4 8 63
8 8 63
12 8 63
16 8 63
20 8 63
24 8 63
28 8 63
32 8 63
36 8 63
40 8 63
44 8 63
48 8 63
52 8 63
56 8 63
60 8 63
65 8 63
69 8 63
73 8 63
77 8 63
81 8 63
85 8 63
89 8 63
93 8 63
97 8 63
101 8 63
105 8 63
109 8 63
113 8 63
117 8 63
121 8 63
125 8 63
130 8 63
134 8 63
138 8 63
142 8 63
146 8 63
150 8 63
154 8 63
158 8 63
162 8 63
166 8 63
170 8 63
174 8 63
178 8 63
182 8 63
186 8 63
190 8 63
195 8 63
199 8 63
203 8 63
207 8 63
211 8 63
215 8 63
219 8 63
223 8 63
227 8 63
231 8 63
235 8 63
239 8 63
243 8 63
247 8 63
251 8 63
255 8 63
0 4 63
4 4 63
8 4 63
12 4 63
16 4 63
20 4 63
24 4 63
28 4 63
32 4 63
36 4 63
40 4 63
44 4 63
48 4 63
52 4 63
56 4 63
60 4 63
65 4 63
69 4 63
73 4 63
77 4 63
81 4 63
85 4 63
89 4 63
93 4 63
97 4 63
101 4 63
105 4 63
109 4 63
113 4 63
117 4 63
121 4 63
125 4 63
130 4 63
134 4 63
138 4 63
142 4 63
146 4 63
150 4 63
154 4 63
158 4 63
162 4 63
166 4 63
170 4 63
174 4 63
178 4 63
182 4 63
186 4 63
190 4 63
195 4 63
199 4 63
203 4 63
207 4 63
211 4 63
215 4 63
219 4 63
223 4 63
227 4 63
231 4 63
235 4 63
239 4 63
243 4 63
247 4 63
251 4 63
255 4 63
0 0 63
4 0 63
8 0 63
12 0 63
16 0 63
20 0 63
24 0 63
28 0 63
32 0 63
36 0 63
40 0 63
44 0 63
48 0 63
52 0 63
56 0 63
60 0 63
65 0 63
69 0 63
73 0 63
77 0 63
81 0 63
85 0 63
89 0 63
93 0 63
97 0 63
101 0 63
105 0 63
109 0 63
113 0 63
117 0 63
121 0 63
125 0 63
130 0 63
134 0 63
138 0 63
142 0 63
146 0 63
150 0 63
154 0 63
158 0 63
162 0 63
166 0 63
170 0 63
174 0 63
178 0 63
182 0 63
186 0 63
190 0 63
195 0 63
199 0 63
203 0 63
207 0 63
211 0 63
215 0 63
219 0 63
223 0 63
227 0 63
231 0 63
235 0 63
239 0 63
243 0 63
247 0 63
251 0 63
255 0 63
